<svg width="68" height="172" viewBox="0 0 68 172" fill="none" xmlns="http://www.w3.org/2000/svg">
<circle r="6" transform="matrix(-1 0 0 1 34 126)" fill="#33353D"/>
<circle r="6" transform="matrix(-1 0 0 1 34 102)" fill="#33353D"/>
<circle r="6" transform="matrix(-1 0 0 1 34 78)" fill="#33353D"/>
<circle r="6" transform="matrix(-1 0 0 1 34 54)" fill="#33353D"/>
<circle r="6" transform="matrix(-1 0 0 1 34 30)" fill="#33353D"/>
<circle r="6" transform="matrix(-1 0 0 1 34 6)" fill="#33353D"/>
<rect width="48" height="8" rx="4" transform="matrix(0.6867 0.726941 0.726941 -0.6867 0 136.494)" fill="#33353D"/>
<rect width="48" height="8" rx="4" transform="matrix(-0.707107 0.707107 0.707107 0.707107 61.9414 132)" fill="#33353D"/>
</svg>
