<svg width="207" height="210" viewBox="0 0 207 210" fill="none" xmlns="http://www.w3.org/2000/svg">
<circle r="6" transform="matrix(-1 0 0 1 200.598 6)" fill="#33353D"/>
<circle r="6" transform="matrix(-1 0 0 1 197.598 38)" fill="#33353D"/>
<circle r="6" transform="matrix(-1 0 0 1 188.598 70)" fill="#33353D"/>
<circle r="6" transform="matrix(-1 0 0 1 171.598 102)" fill="#33353D"/>
<circle r="6" transform="matrix(-1 0 0 1 146.598 131)" fill="#33353D"/>
<circle r="6" transform="matrix(-1 0 0 1 115.598 154)" fill="#33353D"/>
<circle r="6" transform="matrix(-1 0 0 1 80.598 169)" fill="#33353D"/>
<circle r="6" transform="matrix(-1 0 0 1 47.598 176)" fill="#33353D"/>
<rect width="48" height="8" rx="4" transform="matrix(-0.726941 0.6867 0.6867 0.726941 35.1044 142)" fill="#33353D"/>
<rect width="48" height="8" rx="4" transform="matrix(-0.707107 -0.707107 -0.707107 0.707107 39.598 203.941)" fill="#33353D"/>
</svg>
